<svg width="135" height="34" viewBox="0 0 135 34" fill="none" xmlns="http://www.w3.org/2000/svg">
<path d="M35.498 13.2208V11.1145H45.4211V13.2208H41.7221V23.1957H39.1971V13.2208H35.498Z" fill="#202020"/>
<path d="M51.1416 23.3723C50.2147 23.3723 49.4151 23.1823 48.7418 22.8025C48.0685 22.4227 47.5505 21.8853 47.188 21.1882C46.8276 20.489 46.6484 19.6624 46.6484 18.7064C46.6484 17.7741 46.8276 16.9572 47.188 16.2548C47.5505 15.5502 48.0609 15.0009 48.7202 14.606C49.3785 14.2121 50.1532 14.0146 51.0424 14.0146C51.8387 14.0146 52.5584 14.1851 53.2005 14.524C53.8447 14.8606 54.3551 15.3721 54.7328 16.0562C55.1126 16.7382 55.3025 17.5917 55.3025 18.6158V19.3064H49.1303V19.315C49.1303 19.9916 49.3137 20.5235 49.6828 20.912C50.054 21.3005 50.5546 21.4947 51.1848 21.4947C51.6046 21.4947 51.9671 21.4073 52.2725 21.2314C52.58 21.0534 52.7969 20.7911 52.9243 20.4458L55.2464 20.6012C55.0705 21.4418 54.6227 22.1141 53.904 22.6169C53.1843 23.1208 52.2639 23.3723 51.1416 23.3723ZM49.1303 17.7482H52.9372C52.9307 17.2108 52.757 16.7673 52.4149 16.4188C52.0718 16.0681 51.6272 15.8922 51.0812 15.8922C50.5223 15.8922 50.0647 16.0735 49.7087 16.4361C49.3515 16.7965 49.1583 17.2335 49.1303 17.7482Z" fill="#202020"/>
<path d="M64.479 16.7169L62.1784 16.8593C62.1148 16.569 61.9551 16.3198 61.6993 16.1126C61.4458 15.9032 61.1005 15.7975 60.6634 15.7975C60.275 15.7975 59.9448 15.8795 59.675 16.0435C59.4042 16.2054 59.2714 16.4223 59.2779 16.6953C59.2714 16.9111 59.3567 17.0945 59.5326 17.2434C59.7074 17.3934 60.0052 17.5132 60.426 17.6017L62.0662 17.934C63.81 18.2912 64.6829 19.1081 64.6862 20.3857C64.6862 20.9813 64.5114 21.5036 64.1639 21.9525C63.8154 22.3992 63.3373 22.7466 62.7309 22.997C62.1266 23.2473 61.4328 23.3725 60.6505 23.3725C59.4506 23.3725 58.4934 23.1222 57.7802 22.6215C57.0691 22.1186 56.6547 21.4345 56.5371 20.5713L59.0103 20.4418C59.088 20.8108 59.2693 21.0892 59.5542 21.2791C59.8412 21.4669 60.2081 21.5597 60.6548 21.5597C61.0972 21.5597 61.4533 21.4734 61.7209 21.3007C61.9907 21.1281 62.1277 20.9079 62.131 20.6403C62.1191 20.1914 61.7317 19.8915 60.9699 19.7382L59.3988 19.4275C57.6464 19.0768 56.7723 18.2135 56.7788 16.8377C56.7756 15.9637 57.1252 15.2742 57.8277 14.7702C58.5291 14.2674 59.4603 14.0149 60.6203 14.0149C61.7652 14.0149 62.6672 14.2566 63.3266 14.74C63.9848 15.2234 64.3689 15.8827 64.479 16.7169Z" fill="#202020"/>
<path d="M71.0905 14.1359V16.0221H69.3856V20.4117C69.3856 20.757 69.4633 20.9923 69.6187 21.1153C69.7762 21.2361 69.9823 21.2966 70.2359 21.2966C70.3535 21.2966 70.4711 21.2868 70.5898 21.2663C70.7074 21.2437 70.7981 21.2264 70.8617 21.2145L71.2545 23.0835C71.1304 23.1245 70.9535 23.1698 70.7236 23.2216C70.4959 23.2755 70.2197 23.309 69.8949 23.3209C68.9799 23.3576 68.2461 23.1601 67.6936 22.7252C67.1411 22.2914 66.8671 21.6289 66.8735 20.7398V16.0221H65.6348V14.1359H66.8735V11.9648H69.3856V14.1359H71.0905Z" fill="#202020"/>
<path d="M72.7236 23.1956V14.1358H75.24V23.1956H72.7236ZM73.8631 12.9661C73.4941 12.9661 73.1768 12.8409 72.9092 12.5906C72.6416 12.3402 72.5078 12.0413 72.5078 11.6928C72.5078 11.3421 72.6416 11.0432 72.9092 10.795C73.1768 10.5479 73.4941 10.4238 73.8631 10.4238C74.2365 10.4238 74.558 10.5479 74.8256 10.795C75.0932 11.0432 75.227 11.3421 75.227 11.6928C75.227 12.0413 75.0932 12.3402 74.8256 12.5906C74.558 12.8409 74.2365 12.9661 73.8631 12.9661Z" fill="#202020"/>
<path d="M77.2422 23.1955V14.1357H79.6377V15.7328H79.7456C79.9355 15.1975 80.2506 14.7778 80.6909 14.4724C81.1333 14.1681 81.6599 14.0149 82.2706 14.0149C82.8921 14.0149 83.4198 14.1703 83.8547 14.481C84.2917 14.7897 84.5841 15.2062 84.7309 15.7328H84.8258C85.0093 15.2148 85.3448 14.7994 85.8315 14.4854C86.3171 14.1724 86.8933 14.0149 87.558 14.0149C88.4007 14.0149 89.087 14.2847 89.6168 14.822C90.1456 15.3572 90.411 16.1169 90.411 17.101V23.1955H87.9033V17.5974C87.9033 17.0945 87.7695 16.7169 87.5019 16.4665C87.2343 16.214 86.8998 16.0867 86.5005 16.0867C86.043 16.0867 85.6858 16.2324 85.4301 16.5226C85.1765 16.814 85.0503 17.1938 85.0503 17.6621V23.1955H82.6116V17.5456C82.6116 17.0999 82.4843 16.746 82.2318 16.4838C81.9782 16.2194 81.6448 16.0867 81.2304 16.0867C80.8128 16.0867 80.4632 16.2399 80.1815 16.5442C79.8988 16.8496 79.7586 17.2542 79.7586 17.7571V23.1955H77.2422Z" fill="#202020"/>
<path d="M96.486 23.3725C95.5677 23.3725 94.7746 23.1772 94.1078 22.7855C93.4431 22.3949 92.9294 21.8478 92.5669 21.1453C92.2065 20.4439 92.0273 19.6282 92.0273 18.698C92.0273 17.7635 92.2065 16.9445 92.5669 16.2421C92.9294 15.5407 93.4431 14.9936 94.1078 14.6019C94.7746 14.2113 95.5677 14.0149 96.486 14.0149C97.4011 14.0149 98.192 14.2113 98.86 14.6019C99.5268 14.9936 100.04 15.5407 100.401 16.2421C100.763 16.9445 100.945 17.7635 100.945 18.698C100.945 19.6282 100.763 20.4439 100.401 21.1453C100.04 21.8478 99.5268 22.3949 98.86 22.7855C98.192 23.1772 97.4011 23.3725 96.486 23.3725ZM96.499 21.4259C97.1205 21.4259 97.591 21.1669 97.9104 20.649C98.2298 20.1288 98.3895 19.4728 98.3895 18.6807C98.3895 17.893 98.2298 17.238 97.9104 16.7169C97.591 16.1935 97.1205 15.9313 96.499 15.9313C95.8656 15.9313 95.3865 16.1935 95.0617 16.7169C94.739 17.238 94.5782 17.893 94.5782 18.6807C94.5782 19.4728 94.739 20.1288 95.0617 20.649C95.3865 21.1669 95.8656 21.4259 96.499 21.4259Z" fill="#202020"/>
<path d="M105.1 17.9556V23.1955H102.584V14.1357H104.979V15.7328H105.087C105.291 15.2062 105.628 14.7897 106.097 14.481C106.569 14.1703 107.14 14.0149 107.811 14.0149C108.754 14.0149 109.512 14.3203 110.081 14.9299C110.653 15.5374 110.94 16.3694 110.94 17.4247V23.1955H108.428V17.8736C108.43 17.319 108.288 16.8852 108.001 16.5744C107.713 16.2615 107.317 16.104 106.814 16.104C106.307 16.104 105.896 16.2669 105.579 16.5917C105.262 16.9176 105.103 17.3718 105.1 17.9556Z" fill="#202020"/>
<path d="M112.911 23.1956V14.1358H115.427V23.1956H112.911ZM114.051 12.9661C113.682 12.9661 113.364 12.8409 113.097 12.5906C112.829 12.3402 112.695 12.0413 112.695 11.6928C112.695 11.3421 112.829 11.0432 113.097 10.795C113.364 10.5479 113.682 10.4238 114.051 10.4238C114.424 10.4238 114.746 10.5479 115.013 10.795C115.281 11.0432 115.415 11.3421 115.415 11.6928C115.415 12.0413 115.281 12.3402 115.013 12.5906C114.746 12.8409 114.424 12.9661 114.051 12.9661Z" fill="#202020"/>
<path d="M120.016 23.3682C119.15 23.3682 118.432 23.1427 117.862 22.6905C117.293 22.2363 117.008 21.5618 117.008 20.6662C117.008 19.9907 117.165 19.4598 117.483 19.0735C117.802 18.6883 118.221 18.4067 118.739 18.2275C119.257 18.0463 119.814 17.9286 120.413 17.8736C121.199 17.7959 121.76 17.7139 122.097 17.6276C122.435 17.5413 122.606 17.3513 122.606 17.0578V17.0233C122.606 16.65 122.487 16.3608 122.252 16.1557C122.019 15.9518 121.688 15.8493 121.259 15.8493C120.807 15.8493 120.448 15.9486 120.18 16.1471C119.913 16.3435 119.736 16.5917 119.649 16.8938L117.327 16.7039C117.5 15.8784 117.928 15.2234 118.613 14.74C119.301 14.2566 120.187 14.0149 121.272 14.0149C121.946 14.0149 122.574 14.1217 123.158 14.3343C123.745 14.5479 124.218 14.8803 124.578 15.3313C124.938 15.7802 125.118 16.3651 125.118 17.0837V23.1955H122.735V21.9395H122.666C122.444 22.3603 122.114 22.7035 121.674 22.9711C121.236 23.2355 120.683 23.3682 120.016 23.3682ZM120.737 21.6331C121.286 21.6331 121.738 21.4734 122.092 21.154C122.446 20.8324 122.623 20.4331 122.623 19.9584V18.9958C122.525 19.0627 122.373 19.121 122.166 19.1728C121.959 19.2246 121.738 19.2699 121.505 19.3066C121.272 19.3444 121.063 19.3757 120.879 19.4016C120.439 19.4652 120.083 19.5893 119.813 19.7728C119.543 19.9573 119.408 20.226 119.408 20.5799C119.408 20.9284 119.533 21.1917 119.783 21.3698C120.033 21.5457 120.351 21.6331 120.737 21.6331Z" fill="#202020"/>
<path d="M129.587 11.1143V23.1954H127.07V11.1143H129.587Z" fill="#202020"/>
<path d="M16.0449 4.51782C9.00947 4.51782 3.30664 10.2217 3.30664 17.2561C3.30664 24.2916 9.00947 29.9944 16.0449 29.9944C23.0793 29.9944 28.7832 24.2905 28.7832 17.2561C28.7832 10.2217 23.0793 4.51782 16.0449 4.51782ZM12.9243 20.6767C12.9243 21.3652 12.3664 21.922 11.6791 21.922C10.9906 21.922 10.4338 21.3652 10.4338 20.6767V15.3678C10.4338 14.6793 10.9906 14.1215 11.6791 14.1215C12.3664 14.1215 12.9243 14.6793 12.9243 15.3678V20.6767ZM21.7208 20.5872C21.7208 21.5605 21.1521 21.909 20.1788 21.909H15.7007C14.7274 21.909 13.9386 21.1202 13.9386 20.1469V15.7422C13.9386 15.7422 13.8512 15.0095 14.6627 14.3211C15.1213 13.9315 15.8022 13.1881 16.278 12.286C17.2233 10.4937 17.7887 9.97139 18.2192 10.1117C19.8141 10.6285 19.0167 12.9928 18.502 13.9801H19.9587C20.9309 13.9801 21.7208 14.7689 21.7208 15.7422V20.5872Z" fill="#2A266A"/>
</svg>
