<svg width="70" height="70" viewBox="0 0 70 70" fill="none" xmlns="http://www.w3.org/2000/svg">
<g opacity="0.12">
<path d="M53.3754 35.8417C59.8548 35.8417 64.2211 40.4303 64.2211 47.2292C64.2211 53.3473 59.2027 58.4444 52.4056 58.4444C44.9605 58.4444 39.4592 52.3263 39.4592 42.981C39.4592 21.7397 54.6713 13.2433 64.2211 12.2222V21.5675C57.7459 22.7566 50.4659 29.3832 50.1399 36.6947C50.4659 36.5267 51.7576 35.8417 53.3754 35.8417ZM20.3637 35.8417C26.8348 35.8417 31.2053 40.4303 31.2053 47.2292C31.2053 53.3473 26.1869 58.4444 19.3897 58.4444C11.9446 58.4444 6.44336 52.3263 6.44336 42.981C6.44336 21.7397 21.6554 13.2433 31.2053 12.2222V21.5675C24.73 22.7566 17.45 29.3832 17.124 36.6947C17.45 36.5267 18.7418 35.8417 20.3637 35.8417Z" fill="#2A266A"/>
</g>
</svg>
